<?xml version="1.0" encoding="UTF-8" standalone="no"?>
<svg
   xmlns:dc="http://purl.org/dc/elements/1.1/"
   xmlns:cc="http://creativecommons.org/ns#"
   xmlns:rdf="http://www.w3.org/1999/02/22-rdf-syntax-ns#"
   xmlns:svg="http://www.w3.org/2000/svg"
   xmlns="http://www.w3.org/2000/svg"
   xmlns:sodipodi="http://sodipodi.sourceforge.net/DTD/sodipodi-0.dtd"
   xmlns:inkscape="http://www.inkscape.org/namespaces/inkscape"
   viewBox="0 0 44 44"
   version="1.1"
   id="svg4"
   sodipodi:docname="coffee-cup.svg"
   inkscape:version="1.0.2-2 (e86c870879, 2021-01-15)">
  <metadata
     id="metadata10">
    <rdf:RDF>
      <cc:Work
         rdf:about="">
        <dc:format>image/svg+xml</dc:format>
        <dc:type
           rdf:resource="http://purl.org/dc/dcmitype/StillImage" />
      </cc:Work>
    </rdf:RDF>
  </metadata>
  <defs
     id="defs8" />
  <sodipodi:namedview
     pagecolor="#ffffff"
     bordercolor="#666666"
     borderopacity="1"
     objecttolerance="10"
     gridtolerance="10"
     guidetolerance="10"
     inkscape:pageopacity="0"
     inkscape:pageshadow="2"
     inkscape:window-width="1366"
     inkscape:window-height="705"
     id="namedview6"
     showgrid="false"
     inkscape:zoom="6.1136364"
     inkscape:cx="20.535304"
     inkscape:cy="23.333239"
     inkscape:window-x="-8"
     inkscape:window-y="-8"
     inkscape:window-maximized="1"
     inkscape:current-layer="svg4" />
  <path
     d="M11.8 26l-2.2 2.3c-.5-2.9-.7-7.5 2.2-11.2V26zm-.4 4.1c2.7.5 7.2.7 10.6-2.3h-8.5l-2.1 2.3zm5.3-16.2c-.8.2-1.7.5-2.4.9v8.5l2.4-2.6v-6.8zm2.5-.3v4.6l4-4.2c-1.1-.3-2.5-.5-4-.4zM16 25.2h8.1c.4-.8.7-1.7.9-2.6h-6.6L16 25.2zm28-6.1V25c0 4.3-3.3 7.8-7.4 7.8h-1.8v2.9c0 4.6-3.6 8.3-7.9 8.3h-19C3.6 44 0 40.3 0 35.7V0h34.8v11.4h1.8c4.1 0 7.4 3.5 7.4 7.7zm-16.2.9c.1-2.6-.4-5-.8-6.4-.2-.9-.4-1.4-.4-1.4s-.5-.2-1.4-.4c-1.4-.4-3.6-.9-6.1-.8-.8 0-1.7.1-2.5.3-.8.2-1.6.4-2.4.7-.9.4-1.7.8-2.5 1.5-.6.5-1.1 1-1.6 1.6-4.5 5.4-3.4 12.5-2.6 15.5.2.9.4 1.4.4 1.4s.5.2 1.4.4c2.8.8 9.6 2 14.7-2.7.6-.5 1.1-1.1 1.5-1.7.6-.8 1-1.7 1.4-2.6.3-.8.5-1.7.7-2.6.1-1.1.2-1.9.2-2.8zm13.2-.9c0-2.6-2-4.6-4.4-4.6h-1.8v15.1h1.8c2.4 0 4.4-2.1 4.4-4.6v-5.9zM21 20h4.4c0-1.6-.1-3-.4-4.2L21 20z"
     id="path2"
     style="fill:#ffffff;fill-opacity:1" />
</svg>
